<svg version="1.1" id="Layer_1" xmlns="http://www.w3.org/2000/svg" xmlns:xlink="http://www.w3.org/1999/xlink" x="0px" y="0px"
	 width="100%" viewBox="0 0 360 367" enable-background="new 0 0 360 367" xml:space="preserve">
<path fill="#000000" opacity="1.000000" stroke="none" 
	d="
M210.000000,368.000000 
	C140.023895,368.000000 70.547791,368.000000 1.035841,368.000000 
	C1.035841,245.732635 1.035841,123.465240 1.035841,1.098928 
	C120.892715,1.098928 240.785553,1.098928 360.839172,1.098928 
	C360.839172,123.333160 360.839172,245.666565 360.839172,368.000000 
	C310.798645,368.000000 260.649323,368.000000 210.000000,368.000000 
M70.553566,356.194214 
	C70.706017,356.702271 70.858459,357.210358 71.661369,357.889282 
	C72.106445,357.887054 72.551529,357.884857 73.650581,357.996582 
	C76.592087,356.302765 79.734062,354.878906 82.440704,352.868805 
	C94.773064,343.710175 106.983032,334.386749 119.732300,324.860596 
	C125.217613,320.935394 130.766434,317.095459 136.174332,313.066376 
	C145.911774,305.811493 155.564774,298.443298 165.704102,290.860596 
	C177.216675,282.270142 188.729248,273.679688 200.732452,264.846741 
	C201.521713,264.455261 202.399689,264.179779 203.086639,263.654510 
	C210.430817,258.038605 217.744766,252.383194 225.459534,246.796890 
	C232.674210,241.331833 239.841644,235.802887 247.117584,230.420654 
	C253.681213,225.565338 260.363647,220.870621 267.705353,216.213058 
	C268.714417,215.162247 269.598785,213.943542 270.752045,213.086838 
	C281.129913,205.377594 291.583435,197.770111 301.958221,190.056747 
	C312.358765,182.324265 322.694611,174.504700 333.485840,166.752609 
	C337.324677,163.904678 341.163513,161.056747 345.717194,158.030548 
	C347.862823,156.720428 350.008453,155.410324 352.879974,153.656982 
	C238.107925,106.078270 124.358475,58.923485 9.288315,11.221204 
	C10.352924,15.192223 11.119752,18.052507 12.508713,21.348808 
	C17.996416,52.901028 23.484118,84.453247 29.019075,116.594093 
	C29.306767,117.075050 29.594458,117.556007 29.960102,118.780975 
	C30.359083,121.187286 30.758064,123.593597 30.995255,126.702728 
	C30.796583,127.330147 30.329195,128.010330 30.440424,128.576904 
	C31.678656,134.884216 33.047287,141.165848 34.298557,147.470688 
	C35.588314,153.969467 36.787296,160.486282 38.050308,167.690613 
	C38.549465,172.019440 38.794506,176.396072 39.597954,180.667664 
	C41.584797,191.230850 43.935722,201.725403 45.937016,212.286057 
	C47.989376,223.116150 49.800255,233.992020 51.290627,245.158905 
	C51.535805,245.769730 51.780983,246.380539 52.028492,247.658813 
	C52.238377,248.707428 52.448261,249.756042 52.209381,251.122787 
	C52.470215,251.749359 52.731049,252.375931 53.025394,253.659424 
	C53.226212,254.696625 53.427032,255.733826 53.152962,257.208038 
	C54.888939,266.403442 56.607685,275.602112 58.365685,284.793304 
	C60.159374,294.171051 62.038151,303.532684 63.789722,312.918213 
	C64.859245,318.649048 65.751404,324.412842 66.736954,330.159515 
	C68.157257,338.441071 69.590042,346.720520 70.962761,355.429749 
	C70.962761,355.429749 70.945671,355.861755 70.553566,356.194214 
z"/>
<path fill="#545454" opacity="1.000000" stroke="none" 
	d="
M28.971821,116.005470 
	C23.484118,84.453247 17.996416,52.901028 12.255852,20.755373 
	C13.888128,15.150418 15.389227,19.907700 17.097544,20.184002 
	C17.231777,20.074852 17.328007,20.142427 17.424234,20.210003 
	C17.350155,20.298801 17.276075,20.387600 17.201994,20.476398 
	C17.141399,20.395111 17.080805,20.313822 16.578075,20.233526 
	C16.108101,19.384010 16.080261,18.533501 16.417868,17.362640 
	C17.024490,16.825945 17.265663,16.609602 17.832546,16.546062 
	C49.191200,29.576593 80.224144,42.454323 111.193283,55.727169 
	C111.143738,57.894169 110.411194,60.523762 111.296829,61.294880 
	C116.058861,65.441177 113.629654,70.478905 113.717178,75.239716 
	C113.750748,77.065552 113.770798,79.469688 114.852440,80.602959 
	C121.151817,87.202972 123.301353,97.421181 120.239632,104.701271 
	C121.758377,108.352943 123.274216,111.037354 124.004791,113.920723 
	C127.138008,126.286697 129.973557,138.728073 133.101242,151.095520 
	C133.548019,152.862137 135.001114,154.374283 135.991516,156.383453 
	C136.010284,157.522644 136.026001,158.282562 135.989838,159.379135 
	C135.488876,160.485245 135.039825,161.254730 134.306229,161.969315 
	C133.633621,161.867966 133.245575,161.821503 132.686691,161.495361 
	C131.009949,159.829971 129.733749,157.816437 127.958473,157.166885 
	C120.149353,154.309647 112.014992,152.285660 104.343506,149.122864 
	C95.798126,145.599777 87.684464,141.041855 79.248672,137.231522 
	C77.284607,136.344360 74.507950,135.883041 72.569489,136.558441 
	C65.503502,139.020401 65.013657,139.003250 62.238724,132.229523 
	C57.819923,134.403778 50.806156,133.024857 50.433563,129.413635 
	C49.606926,121.401833 43.219494,121.626884 38.337948,119.480827 
	C38.436356,119.990410 38.534760,120.499985 38.633163,121.009560 
	C36.141125,122.673012 33.649086,124.336464 31.157047,125.999908 
	C30.758064,123.593597 30.359083,121.187286 30.180573,118.304474 
	C30.667917,117.212845 30.934788,116.597717 31.201658,115.982582 
	C30.458380,115.990211 29.715099,115.997841 28.971821,116.005470 
M55.929985,126.744629 
	C55.998943,126.747704 56.067905,126.750778 55.929985,126.744629 
z"/>
<path fill="#5A5A5A" opacity="1.000000" stroke="none" 
	d="
M71.017502,355.000854 
	C69.590042,346.720520 68.157257,338.441071 66.736954,330.159515 
	C65.751404,324.412842 64.859245,318.649048 63.789722,312.918213 
	C62.038151,303.532684 60.159374,294.171051 58.365685,284.793304 
	C56.607685,275.602112 54.888939,266.403442 53.654720,257.174561 
	C56.041912,258.908264 57.252502,258.158325 58.430897,256.203522 
	C59.356319,254.668381 60.606476,253.324661 61.748215,251.925125 
	C64.184288,248.939056 66.602234,245.936646 69.103302,243.005508 
	C72.663582,238.833069 76.050232,234.336044 80.826805,234.519241 
	C83.010483,230.500107 84.820160,227.163406 86.635551,223.829819 
	C88.420898,220.551376 90.212029,217.276077 92.000305,213.999695 
	C92.000000,214.000000 91.999451,214.000610 92.279358,213.812653 
	C97.704987,207.749710 103.012115,202.006363 107.945984,195.958527 
	C111.980179,191.013489 115.239769,185.415817 119.441971,180.634064 
	C124.287460,175.120300 129.790726,170.184586 135.338654,165.000031 
	C136.109329,165.004547 136.549728,165.006866 136.992798,165.256531 
	C136.995499,165.503891 136.996948,165.998856 136.806473,166.253983 
	C136.078339,167.672058 135.540695,168.835022 134.965210,170.382401 
	C133.316559,176.710617 131.746979,182.455093 132.032242,188.929626 
	C132.393402,197.127213 130.847733,205.422073 129.966202,213.658051 
	C128.641968,226.029724 127.265739,238.397202 125.748619,250.746429 
	C124.641808,259.755707 123.232933,268.727478 122.036324,277.726288 
	C121.424461,282.327637 120.938599,286.947235 120.474640,291.566467 
	C119.717834,299.101410 118.821556,306.631287 118.394722,314.186523 
	C118.190331,317.804474 118.926712,321.475555 119.237007,325.122589 
	C106.983032,334.386749 94.773064,343.710175 82.440704,352.868805 
	C79.734062,354.878906 76.592087,356.302765 73.281998,357.626343 
	C72.281433,356.504395 71.649460,355.752625 71.017502,355.000854 
z"/>
<path fill="#676767" opacity="1.000000" stroke="none" 
	d="
M136.990112,165.009186 
	C136.549728,165.006866 136.109329,165.004547 135.414200,164.746826 
	C134.969894,163.669022 134.780334,162.846603 134.590775,162.024200 
	C135.039825,161.254730 135.488876,160.485245 136.316803,159.373169 
	C137.132751,159.024048 137.569839,159.017517 138.253082,159.011932 
	C138.499222,159.012894 138.991669,159.017059 139.124908,159.279144 
	C140.455338,159.569656 141.768478,159.937973 142.832214,159.575104 
	C156.976273,154.750229 171.077698,149.800568 185.206039,144.929337 
	C193.804153,141.964859 202.393494,138.966537 211.055481,136.198425 
	C218.117035,133.941772 225.279831,132.001617 232.400238,129.929779 
	C233.036545,129.744629 233.827621,129.807053 234.317200,129.444458 
	C242.155579,123.639153 251.353058,122.001053 260.674072,120.643730 
	C261.522247,120.520218 262.243500,119.524765 263.405884,118.960449 
	C277.276031,124.426575 290.763947,129.866470 304.005859,135.616211 
	C299.246948,137.131180 294.795227,138.723465 290.206421,139.448227 
	C283.765533,140.465500 277.186249,140.597992 270.737732,141.579300 
	C267.080109,142.135895 263.629028,144.039307 259.971619,144.609680 
	C254.343719,145.487350 248.587265,145.516296 242.940445,146.301514 
	C227.540085,148.442993 212.169891,150.800797 196.785248,153.056000 
	C182.693573,155.121658 168.587921,157.096680 154.518234,159.301910 
	C152.678650,159.590256 151.016479,161.010452 149.272125,161.906403 
	C149.389420,162.537857 149.506714,163.169296 149.624008,163.800751 
	C151.892365,163.977036 154.176025,164.416138 156.426468,164.285004 
	C167.272934,163.653030 178.109619,162.854294 188.952850,162.162857 
	C189.756958,162.111588 190.602844,162.632553 191.399429,162.559921 
	C196.954178,162.053436 202.501007,161.460510 208.404114,161.079163 
	C216.938080,160.987625 225.118332,160.712234 233.790726,160.380493 
	C236.980316,160.945816 239.873886,161.138626 242.339874,162.266388 
	C251.084000,166.265289 252.994019,165.967834 258.197266,159.118210 
	C266.239105,161.216782 274.111542,163.271133 282.262360,165.398132 
	C281.957214,168.506302 283.355133,169.378403 286.329071,167.586975 
	C289.552490,165.645264 292.660004,163.457245 296.041595,161.845688 
	C300.168640,159.878845 303.723389,161.124527 304.596802,164.351349 
	C305.522522,167.771423 309.952179,169.774261 311.832245,167.132248 
	C315.232941,162.353348 318.164948,163.046387 320.393829,165.431137 
	C322.917236,163.709793 325.033081,161.138718 326.648499,161.421967 
	C329.240356,161.876358 334.102875,161.262115 333.058777,166.723297 
	C322.694611,174.504700 312.358765,182.324265 301.958221,190.056747 
	C291.583435,197.770111 281.129913,205.377594 270.752045,213.086838 
	C269.598785,213.943542 268.714417,215.162247 267.417786,215.782227 
	C268.180145,209.691544 268.010925,209.510010 262.256378,209.336868 
	C261.306244,209.308258 260.116760,209.243484 259.459137,208.692581 
	C250.765869,201.409592 239.453735,200.363876 229.546402,196.000198 
	C223.328552,193.261566 216.252197,191.576447 214.002838,183.421356 
	C211.080566,185.400070 209.751465,188.443481 205.043442,186.741013 
	C196.795288,183.758377 188.101456,182.172607 181.584839,175.606934 
	C181.097519,175.115936 180.023483,175.087189 179.213684,175.054474 
	C167.810028,174.593765 157.606201,170.454361 147.771683,165.037735 
	C146.407333,164.286285 144.604874,164.330261 142.767639,163.854309 
	C141.686096,164.136475 140.842148,164.570343 139.622299,165.002777 
	C138.494308,165.003967 137.742203,165.006577 136.990112,165.009186 
z"/>
<path fill="#575757" opacity="1.000000" stroke="none" 
	d="
M134.306229,161.969315 
	C134.780334,162.846603 134.969894,163.669022 135.083893,164.744629 
	C129.790726,170.184586 124.287460,175.120300 119.441971,180.634064 
	C115.239769,185.415817 111.980179,191.013489 107.945984,195.958527 
	C103.012115,202.006363 97.704987,207.749710 92.178741,213.569794 
	C91.288368,213.203918 90.778534,212.892960 90.268692,212.581985 
	C90.147362,212.838760 90.026031,213.095551 89.904694,213.352325 
	C90.603333,213.568008 91.301971,213.783707 92.000610,213.999390 
	C90.212029,217.276077 88.420898,220.551376 86.635551,223.829819 
	C84.820160,227.163406 83.010483,230.500107 80.826805,234.519241 
	C76.050232,234.336044 72.663582,238.833069 69.103302,243.005508 
	C66.602234,245.936646 64.184288,248.939056 61.748215,251.925125 
	C60.606476,253.324661 59.356319,254.668381 58.430897,256.203522 
	C57.252502,258.158325 56.041912,258.908264 53.892166,256.956055 
	C53.427032,255.733826 53.226212,254.696625 53.134125,253.112549 
	C53.047947,251.978683 52.853043,251.391663 52.658146,250.804657 
	C52.448261,249.756042 52.238377,248.707428 52.144463,247.111832 
	C52.079227,245.992523 51.898026,245.420181 51.716824,244.847855 
	C49.800255,233.992020 47.989376,223.116150 45.937016,212.286057 
	C43.935722,201.725403 41.584797,191.230850 39.597954,180.667664 
	C38.794506,176.396072 38.549465,172.019440 38.383026,167.194977 
	C43.784206,166.150681 48.843620,165.488297 53.923576,165.083984 
	C59.477577,164.641922 65.161598,163.504440 69.970505,167.961166 
	C70.603165,168.547485 72.683548,167.916656 73.922653,167.421890 
	C75.730927,166.699860 77.316399,164.945831 79.115547,164.755844 
	C87.558060,163.864334 96.039093,163.325333 104.513733,162.773697 
	C105.196716,162.729233 105.894577,163.658966 106.658928,163.925339 
	C107.561577,164.239868 108.721657,164.752518 109.464577,164.443848 
	C117.024384,161.302902 124.966095,161.807373 132.857513,161.775040 
	C133.245575,161.821503 133.633621,161.867966 134.306229,161.969315 
M70.885468,231.156982 
	C71.038086,231.512390 71.190704,231.867798 71.343315,232.223206 
	C71.643616,231.922470 71.943916,231.621750 72.244217,231.320999 
	C71.887413,231.170349 71.530602,231.019699 70.885468,231.156982 
z"/>
<path fill="#646464" opacity="1.000000" stroke="none" 
	d="
M143.005234,164.005997 
	C144.604874,164.330261 146.407333,164.286285 147.771683,165.037735 
	C157.606201,170.454361 167.810028,174.593765 179.213684,175.054474 
	C180.023483,175.087189 181.097519,175.115936 181.584839,175.606934 
	C188.101456,182.172607 196.795288,183.758377 205.043442,186.741013 
	C209.751465,188.443481 211.080566,185.400070 214.002838,183.421356 
	C216.252197,191.576447 223.328552,193.261566 229.546402,196.000198 
	C239.453735,200.363876 250.765869,201.409592 259.459137,208.692581 
	C260.116760,209.243484 261.306244,209.308258 262.256378,209.336868 
	C268.010925,209.510010 268.180145,209.691544 267.061951,215.728241 
	C260.363647,220.870621 253.681213,225.565338 247.117584,230.420654 
	C239.841644,235.802887 232.674210,241.331833 225.194489,246.440521 
	C221.717255,242.821030 218.602829,239.454269 215.274078,236.314743 
	C206.275040,227.827255 197.111511,219.513229 188.162613,210.973831 
	C183.870667,206.878265 180.125763,202.201569 175.766479,198.186081 
	C166.015717,189.204254 155.981339,180.530823 146.192062,171.589920 
	C144.163223,169.736923 142.696762,167.268204 141.225037,164.946533 
	C141.987717,164.541870 142.496475,164.273926 143.005234,164.005997 
z"/>
<path fill="#5D5D5D" opacity="1.000000" stroke="none" 
	d="
M119.484650,324.991577 
	C118.926712,321.475555 118.190331,317.804474 118.394722,314.186523 
	C118.821556,306.631287 119.717834,299.101410 120.474640,291.566467 
	C120.938599,286.947235 121.424461,282.327637 122.036324,277.726288 
	C123.232933,268.727478 124.641808,259.755707 125.748619,250.746429 
	C127.265739,238.397202 128.641968,226.029724 129.966202,213.658051 
	C130.847733,205.422073 132.393402,197.127213 132.032242,188.929626 
	C131.746979,182.455093 133.316559,176.710617 135.285339,170.523376 
	C136.749725,172.608734 138.311478,174.830933 138.886032,177.284317 
	C141.833557,189.870209 144.628632,202.494461 147.259903,215.150436 
	C148.330780,220.301163 148.793625,225.575592 149.639557,230.776443 
	C150.763870,237.688919 151.950348,244.591995 153.186859,251.485352 
	C154.614731,259.445435 156.857315,267.343201 157.376343,275.356750 
	C157.813156,282.101288 160.013153,287.166382 165.253036,291.122437 
	C155.564774,298.443298 145.911774,305.811493 136.174332,313.066376 
	C130.766434,317.095459 125.217613,320.935394 119.484650,324.991577 
z"/>
<path fill="#686868" opacity="1.000000" stroke="none" 
	d="
M333.272308,166.737946 
	C334.102875,161.262115 329.240356,161.876358 326.648499,161.421967 
	C325.033081,161.138718 322.917236,163.709793 320.393829,165.431137 
	C318.164948,163.046387 315.232941,162.353348 311.832245,167.132248 
	C309.952179,169.774261 305.522522,167.771423 304.596802,164.351349 
	C303.723389,161.124527 300.168640,159.878845 296.041595,161.845688 
	C292.660004,163.457245 289.552490,165.645264 286.329071,167.586975 
	C283.355133,169.378403 281.957214,168.506302 282.262360,165.398132 
	C274.111542,163.271133 266.239105,161.216782 258.197266,159.118210 
	C252.994019,165.967834 251.084000,166.265289 242.339874,162.266388 
	C239.873886,161.138626 236.980316,160.945816 233.508453,160.435883 
	C232.121109,160.052536 231.477417,159.094177 230.899887,159.132492 
	C223.277954,159.638245 215.665329,160.284302 208.050385,160.895264 
	C202.501007,161.460510 196.954178,162.053436 191.399429,162.559921 
	C190.602844,162.632553 189.756958,162.111588 188.952850,162.162857 
	C178.109619,162.854294 167.272934,163.653030 156.426468,164.285004 
	C154.176025,164.416138 151.892365,163.977036 149.624008,163.800751 
	C149.506714,163.169296 149.389420,162.537857 149.272125,161.906403 
	C151.016479,161.010452 152.678650,159.590256 154.518234,159.301910 
	C168.587921,157.096680 182.693573,155.121658 196.785248,153.056000 
	C212.169891,150.800797 227.540085,148.442993 242.940445,146.301514 
	C248.587265,145.516296 254.343719,145.487350 259.971619,144.609680 
	C263.629028,144.039307 267.080109,142.135895 270.737732,141.579300 
	C277.186249,140.597992 283.765533,140.465500 290.206421,139.448227 
	C294.795227,138.723465 299.246948,137.131180 304.363770,135.733643 
	C316.249359,140.209778 327.547607,144.838898 338.798889,149.579575 
	C341.095581,150.547256 343.215698,151.933929 345.355103,153.728241 
	C345.277161,155.131989 345.261292,155.934967 345.131653,156.966293 
	C345.012695,157.532700 345.007507,157.870758 345.002350,158.208801 
	C341.163513,161.056747 337.324677,163.904678 333.272308,166.737946 
z"/>
<path fill="#5F5F5F" opacity="1.000000" stroke="none" 
	d="
M165.478577,290.991516 
	C160.013153,287.166382 157.813156,282.101288 157.376343,275.356750 
	C156.857315,267.343201 154.614731,259.445435 153.186859,251.485352 
	C151.950348,244.591995 150.763870,237.688919 149.639557,230.776443 
	C148.793625,225.575592 148.330780,220.301163 147.259903,215.150436 
	C144.628632,202.494461 141.833557,189.870209 138.886032,177.284317 
	C138.311478,174.830933 136.749725,172.608734 135.323181,170.138947 
	C135.540695,168.835022 136.078339,167.672058 137.075623,166.455002 
	C139.017517,168.588760 140.675949,170.678833 141.953308,172.980423 
	C149.983200,187.448975 157.084244,202.525635 166.212082,216.258179 
	C171.856522,224.750061 174.113037,235.393280 182.513931,242.075226 
	C182.762787,242.273163 182.930481,242.594833 183.085571,242.885712 
	C186.414291,249.128021 189.832626,255.325348 193.017990,261.640167 
	C194.616760,264.809631 196.796646,266.108154 200.241821,265.089203 
	C188.729248,273.679688 177.216675,282.270142 165.478577,290.991516 
z"/>
<path fill="#545454" opacity="1.000000" stroke="none" 
	d="
M132.686691,161.495361 
	C124.966095,161.807373 117.024384,161.302902 109.464577,164.443848 
	C108.721657,164.752518 107.561577,164.239868 106.658928,163.925339 
	C105.894577,163.658966 105.196716,162.729233 104.513733,162.773697 
	C96.039093,163.325333 87.558060,163.864334 79.115547,164.755844 
	C77.316399,164.945831 75.730927,166.699860 73.922653,167.421890 
	C72.683548,167.916656 70.603165,168.547485 69.970505,167.961166 
	C65.161598,163.504440 59.477577,164.641922 53.923576,165.083984 
	C48.843620,165.488297 43.784206,166.150681 38.370865,166.847260 
	C36.787296,160.486282 35.588314,153.969467 34.298557,147.470688 
	C33.047287,141.165848 31.678656,134.884216 30.440424,128.576904 
	C30.329195,128.010330 30.796583,127.330147 31.076153,126.351318 
	C33.649086,124.336464 36.141125,122.673012 38.633163,121.009560 
	C38.534760,120.499985 38.436356,119.990410 38.337948,119.480827 
	C43.219494,121.626884 49.606926,121.401833 50.433563,129.413635 
	C50.806156,133.024857 57.819923,134.403778 62.238724,132.229523 
	C65.013657,139.003250 65.503502,139.020401 72.569489,136.558441 
	C74.507950,135.883041 77.284607,136.344360 79.248672,137.231522 
	C87.684464,141.041855 95.798126,145.599777 104.343506,149.122864 
	C112.014992,152.285660 120.149353,154.309647 127.958473,157.166885 
	C129.733749,157.816437 131.009949,159.829971 132.686691,161.495361 
z"/>
<path fill="#626262" opacity="1.000000" stroke="none" 
	d="
M200.487137,264.967957 
	C196.796646,266.108154 194.616760,264.809631 193.017990,261.640167 
	C189.832626,255.325348 186.414291,249.128021 183.085571,242.885712 
	C182.930481,242.594833 182.762787,242.273163 182.513931,242.075226 
	C174.113037,235.393280 171.856522,224.750061 166.212082,216.258179 
	C157.084244,202.525635 149.983200,187.448975 141.953308,172.980423 
	C140.675949,170.678833 139.017517,168.588760 137.266113,166.199875 
	C136.996948,165.998856 136.995499,165.503891 136.992798,165.256531 
	C137.742203,165.006577 138.494308,165.003967 139.865707,165.020447 
	C140.485016,165.039551 140.971100,165.083267 140.971100,165.083267 
	C142.696762,167.268204 144.163223,169.736923 146.192062,171.589920 
	C155.981339,180.530823 166.015717,189.204254 175.766479,198.186081 
	C180.125763,202.201569 183.870667,206.878265 188.162613,210.973831 
	C197.111511,219.513229 206.275040,227.827255 215.274078,236.314743 
	C218.602829,239.454269 221.717255,242.821030 224.998230,246.411407 
	C217.744766,252.383194 210.430817,258.038605 203.086639,263.654510 
	C202.399689,264.179779 201.521713,264.455261 200.487137,264.967957 
z"/>
<path fill="#EEEEEE" opacity="1.000000" stroke="none" 
	d="
M345.359772,158.119675 
	C345.007507,157.870758 345.012695,157.532700 345.451172,156.809219 
	C345.728729,155.325012 345.572968,154.226227 345.417206,153.127457 
	C343.215698,151.933929 341.095581,150.547256 338.798889,149.579575 
	C327.547607,144.838898 316.249359,140.209778 304.609802,135.423798 
	C290.763947,129.866470 277.276031,124.426575 263.231995,118.643738 
	C243.515045,110.298271 224.354187,102.295738 204.897003,94.126732 
	C194.066116,89.668556 183.531555,85.376854 172.678513,80.905022 
	C163.573654,77.143394 154.787262,73.561905 145.743073,69.729767 
	C134.075867,64.763428 122.666481,60.047737 111.257088,55.332050 
	C80.224144,42.454323 49.191200,29.576593 17.552034,16.401138 
	C16.356750,16.135565 15.767688,16.167715 15.178625,16.199867 
	C15.469891,16.694242 15.761155,17.188618 16.052420,17.682993 
	C16.080261,18.533501 16.108101,19.384010 16.583946,20.266790 
	C17.031950,20.299063 17.059538,20.360725 17.059538,20.360725 
	C15.389227,19.907700 13.888128,15.150418 11.944784,20.537365 
	C11.119752,18.052507 10.352924,15.192223 9.288315,11.221204 
	C124.358475,58.923485 238.107925,106.078270 352.879974,153.656982 
	C350.008453,155.410324 347.862823,156.720428 345.359772,158.119675 
z"/>
<path fill="#545454" opacity="1.000000" stroke="none" 
	d="
M28.995449,116.299782 
	C29.715099,115.997841 30.458380,115.990211 31.201658,115.982582 
	C30.934788,116.597717 30.667917,117.212845 30.141598,117.932472 
	C29.594458,117.556007 29.306767,117.075050 28.995449,116.299782 
z"/>
<path fill="#5D5D5D" opacity="1.000000" stroke="none" 
	d="
M70.990128,355.215302 
	C71.649460,355.752625 72.281433,356.504395 72.955002,357.569397 
	C72.551529,357.884857 72.106445,357.887054 71.328018,357.494446 
	C70.978333,356.687012 70.962006,356.274384 70.945671,355.861755 
	C70.945671,355.861755 70.962761,355.429749 70.990128,355.215302 
z"/>
<path fill="#5A5A5A" opacity="1.000000" stroke="none" 
	d="
M51.503723,245.003387 
	C51.898026,245.420181 52.079227,245.992523 52.143295,246.778107 
	C51.780983,246.380539 51.535805,245.769730 51.503723,245.003387 
z"/>
<path fill="#5A5A5A" opacity="1.000000" stroke="none" 
	d="
M52.433762,250.963715 
	C52.853043,251.391663 53.047947,251.978683 53.117367,252.784088 
	C52.731049,252.375931 52.470215,251.749359 52.433762,250.963715 
z"/>
<path fill="#5A5A5A" opacity="1.000000" stroke="none" 
	d="
M70.749619,356.027985 
	C70.962006,356.274384 70.978333,356.687012 71.002792,357.409027 
	C70.858459,357.210358 70.706017,356.702271 70.749619,356.027985 
z"/>
<path fill="#585858" opacity="1.000000" stroke="none" 
	d="
M111.193283,55.727169 
	C122.666481,60.047737 134.075867,64.763428 145.741821,70.149971 
	C145.583115,78.777489 146.353531,86.838226 143.153183,94.517181 
	C142.104218,97.034065 141.715988,99.939606 141.573456,102.695740 
	C141.329895,107.406090 141.749893,112.153412 141.452530,116.857483 
	C141.215027,120.614761 140.256241,124.321274 139.738388,128.067017 
	C138.451645,137.374329 137.233917,146.691177 135.988464,156.004196 
	C135.001114,154.374283 133.548019,152.862137 133.101242,151.095520 
	C129.973557,138.728073 127.138008,126.286697 124.004791,113.920723 
	C123.274216,111.037354 121.758377,108.352943 120.239632,104.701271 
	C123.301353,97.421181 121.151817,87.202972 114.852440,80.602959 
	C113.770798,79.469688 113.750748,77.065552 113.717178,75.239716 
	C113.629654,70.478905 116.058861,65.441177 111.296829,61.294880 
	C110.411194,60.523762 111.143738,57.894169 111.193283,55.727169 
z"/>
<path fill="#5C5C5C" opacity="1.000000" stroke="none" 
	d="
M135.991516,156.383453 
	C137.233917,146.691177 138.451645,137.374329 139.738388,128.067017 
	C140.256241,124.321274 141.215027,120.614761 141.452530,116.857483 
	C141.749893,112.153412 141.329895,107.406090 141.573456,102.695740 
	C141.715988,99.939606 142.104218,97.034065 143.153183,94.517181 
	C146.353531,86.838226 145.583115,78.777489 145.999634,70.400620 
	C154.787262,73.561905 163.573654,77.143394 172.640915,81.287933 
	C170.227844,88.045906 167.636978,94.288185 164.817093,100.425247 
	C159.932083,111.056816 154.838440,121.592560 149.958450,132.226410 
	C145.880936,141.111603 141.983887,150.079636 138.006927,159.010986 
	C137.569839,159.017517 137.132751,159.024048 136.368698,159.036530 
	C136.026001,158.282562 136.010284,157.522644 135.991516,156.383453 
z"/>
<path fill="#545454" opacity="1.000000" stroke="none" 
	d="
M56.033424,126.749245 
	C56.067905,126.750778 55.998943,126.747704 56.033424,126.749245 
z"/>
<path fill="#EEEEEE" opacity="1.000000" stroke="none" 
	d="
M17.026081,20.265799 
	C17.080805,20.313822 17.141399,20.395111 17.201994,20.476398 
	C17.276075,20.387600 17.350155,20.298801 17.424234,20.210003 
	C17.328007,20.142427 17.231777,20.074852 17.097544,20.184002 
	C17.059538,20.360725 17.031950,20.299063 17.026081,20.265799 
z"/>
<path fill="#646464" opacity="1.000000" stroke="none" 
	d="
M205.193329,94.293213 
	C224.354187,102.295738 243.515045,110.298271 262.849792,118.617508 
	C262.243500,119.524765 261.522247,120.520218 260.674072,120.643730 
	C251.353058,122.001053 242.155579,123.639153 234.317200,129.444458 
	C233.827621,129.807053 233.036545,129.744629 232.400238,129.929779 
	C225.279831,132.001617 218.117035,133.941772 211.055481,136.198425 
	C202.393494,138.966537 193.804153,141.964859 185.206039,144.929337 
	C171.077698,149.800568 156.976273,154.750229 142.832214,159.575104 
	C141.768478,159.937973 140.455338,159.569656 139.402740,159.093597 
	C140.536133,157.759018 141.512360,156.857620 142.515640,155.987427 
	C151.508820,148.187271 160.516907,140.404236 169.486771,132.577393 
	C170.337509,131.835068 170.912659,130.786377 171.692551,129.951675 
	C174.545395,126.898315 177.435287,123.879646 180.301697,120.838928 
	C181.500504,119.567215 182.670502,118.268410 183.862244,116.989990 
	C186.991104,113.633560 189.592499,109.379196 193.383499,107.143173 
	C198.821167,103.935905 202.862717,100.062065 205.193329,94.293213 
z"/>
<path fill="#606060" opacity="1.000000" stroke="none" 
	d="
M204.897003,94.126732 
	C202.862717,100.062065 198.821167,103.935905 193.383499,107.143173 
	C189.592499,109.379196 186.991104,113.633560 183.862244,116.989990 
	C182.670502,118.268410 181.500504,119.567215 180.301697,120.838928 
	C177.435287,123.879646 174.545395,126.898315 171.692551,129.951675 
	C170.912659,130.786377 170.337509,131.835068 169.486771,132.577393 
	C160.516907,140.404236 151.508820,148.187271 142.515640,155.987427 
	C141.512360,156.857620 140.536133,157.759018 139.269516,158.831512 
	C138.991669,159.017059 138.499222,159.012894 138.253082,159.011932 
	C141.983887,150.079636 145.880936,141.111603 149.958450,132.226410 
	C154.838440,121.592560 159.932083,111.056816 164.817093,100.425247 
	C167.636978,94.288185 170.227844,88.045906 172.959381,81.468071 
	C183.531555,85.376854 194.066116,89.668556 204.897003,94.126732 
z"/>
<path fill="#CDCDCD" opacity="1.000000" stroke="none" 
	d="
M208.404114,161.079147 
	C215.665329,160.284302 223.277954,159.638245 230.899887,159.132492 
	C231.477417,159.094177 232.121109,160.052536 233.016312,160.492218 
	C225.118332,160.712234 216.938080,160.987625 208.404114,161.079147 
z"/>
<path fill="#686868" opacity="1.000000" stroke="none" 
	d="
M141.225037,164.946533 
	C140.971100,165.083267 140.485016,165.039551 140.241608,165.021881 
	C140.842148,164.570343 141.686096,164.136475 142.767639,163.854309 
	C142.496475,164.273926 141.987717,164.541870 141.225037,164.946533 
z"/>
<path fill="#5A5A5A" opacity="1.000000" stroke="none" 
	d="
M71.029633,231.013000 
	C71.530602,231.019699 71.887413,231.170349 72.244217,231.321014 
	C71.943916,231.621750 71.643616,231.922470 71.343323,232.223206 
	C71.190704,231.867798 71.038086,231.512390 71.029633,231.013000 
z"/>
<path fill="#5A5A5A" opacity="1.000000" stroke="none" 
	d="
M92.000305,213.999695 
	C91.301971,213.783707 90.603333,213.568008 89.904694,213.352325 
	C90.026031,213.095551 90.147362,212.838760 90.268692,212.581985 
	C90.778534,212.892960 91.288368,213.203918 91.898834,213.757751 
	C91.999451,214.000610 92.000000,214.000000 92.000305,213.999695 
z"/>
<path fill="#676767" opacity="1.000000" stroke="none" 
	d="
M345.355103,153.728241 
	C345.572968,154.226227 345.728729,155.325012 345.564941,156.580856 
	C345.261292,155.934967 345.277161,155.131989 345.355103,153.728241 
z"/>
<path fill="#545454" opacity="1.000000" stroke="none" 
	d="
M16.417868,17.362640 
	C15.761155,17.188618 15.469891,16.694242 15.178625,16.199867 
	C15.767688,16.167715 16.356750,16.135565 17.226326,16.248337 
	C17.265663,16.609602 17.024490,16.825945 16.417868,17.362640 
z"/>
</svg>